<svg width="255" height="72" viewBox="0 0 255 72" fill="none" xmlns="http://www.w3.org/2000/svg">
<g clip-path="url(#clip0_2_2)">
<path fill-rule="evenodd" clip-rule="evenodd" d="M33.9787 0.855927L39.283 20.0648C46.7019 19.9771 50.9945 21.4843 52.2909 24.5864L49.0698 4.88105C47.9053 0.779108 40.486 1.06676 33.9787 0.855927Z" fill="#E20917"/>
<path fill-rule="evenodd" clip-rule="evenodd" d="M1.01013 24.7011C13.9279 5.12256 43.8436 16.9724 49.3281 6.08149L52.2907 24.6864C53.4483 32.9884 26.7773 26.644 16.0743 44.9262L1.01013 24.7011Z" fill="#A61A17"/>
<path fill-rule="evenodd" clip-rule="evenodd" d="M15.9713 28.626L25.4363 50.3418C25.4363 50.3418 25.575 45.242 34.1694 42.6563C42.7639 40.0706 50.9607 41.7843 61.1178 38.7012C71.2749 35.6181 72.1907 32.8196 72.1907 32.8196L72.2393 3.61962C72.2393 3.61962 71.0579 9.61766 63.2426 13.3047C55.4272 16.9917 47.6175 17.2787 37.5939 18.362C26.6598 19.0438 15.3315 22.0249 15.9713 28.626Z" fill="#E20917"/>
<path fill-rule="evenodd" clip-rule="evenodd" d="M15.9713 28.626C18.1764 33.1297 23.5088 35.4385 34.574 34.157L34.5392 55.0569C31.5459 54.952 28.4245 53.5468 25.306 50.4416L15.9713 28.626Z" fill="#EE7D02"/>
<path d="M37.381 32.8442L37.3883 28.4071L58.2939 28.4419L58.2865 32.879L50.4935 32.8661L50.4585 53.8834L45.1389 53.8746L45.1739 32.8572L37.381 32.8442ZM67.4514 54.2846C65.5208 54.2814 63.8518 53.8684 62.4446 53.0458C61.0456 52.2149 59.9662 51.0613 59.2064 49.5851C58.4465 48.1007 58.0682 46.3807 58.0715 44.4252C58.0748 42.4532 58.4588 40.7303 59.2236 39.2567C59.9883 37.7748 61.0716 36.6248 62.4733 35.8068C63.8833 34.9806 65.5536 34.569 67.4842 34.5723C69.4148 34.5755 71.0796 34.9925 72.4786 35.8235C73.8858 36.6461 74.9694 37.7997 75.7292 39.2841C76.4891 40.7603 76.8674 42.4844 76.8641 44.4565C76.8608 46.412 76.4768 48.1307 75.712 49.6126C74.9473 51.0862 73.8599 52.2362 72.4499 53.0624C71.0482 53.8804 69.382 54.2878 67.4514 54.2846ZM67.4831 50.1831C68.3614 50.1845 69.0951 49.9372 69.6843 49.441C70.2734 48.9365 70.7178 48.2495 71.0176 47.38C71.3256 46.5105 71.4806 45.5206 71.4824 44.4103C71.4843 43.2999 71.3326 42.3095 71.0275 41.439C70.7306 40.5684 70.2885 39.88 69.701 39.3735C69.1136 38.8671 68.3807 38.6132 67.5024 38.6117C66.6158 38.6102 65.8696 38.8617 65.2639 39.3662C64.6664 39.8706 64.2137 40.5576 63.9057 41.4271C63.6059 42.2966 63.4551 43.2866 63.4533 44.3969C63.4515 45.5072 63.599 46.4976 63.8958 47.3682C64.2009 48.2387 64.6514 48.9272 65.2471 49.4336C65.8512 49.9318 66.5965 50.1816 67.4831 50.1831ZM89.414 53.9483L80.3906 53.9333L80.4329 28.4787L89.5309 28.4939C92.0913 28.4982 94.2945 29.0114 96.1406 30.0337C97.9867 31.0476 99.4053 32.5042 100.396 34.4033C101.396 36.3025 101.893 38.5737 101.889 41.2169C101.885 43.8684 101.38 46.1462 100.374 48.0503C99.3763 49.9544 97.9445 51.4145 96.0785 52.4306C94.2207 53.4467 91.9992 53.9526 89.414 53.9483ZM85.78 49.3311L89.198 49.3368C90.7889 49.3394 92.1275 49.0599 93.2139 48.4983C94.3086 47.9284 95.1304 47.0473 95.6793 45.855C96.2364 44.6545 96.5166 43.1054 96.5197 41.208C96.5229 39.327 96.2478 37.7895 95.6947 36.5954C95.1498 35.4013 94.3351 34.5217 93.2505 33.9564C92.166 33.3912 90.8283 33.1072 89.2374 33.1046L85.807 33.0989L85.78 49.3311ZM114.38 54.3627C112.449 54.3595 110.78 53.9466 109.373 53.1239C107.974 52.293 106.895 51.1394 106.135 49.6633C105.375 48.1788 104.997 46.4588 105 44.5033C105.003 42.5313 105.387 40.8084 106.152 39.3348C106.917 37.8529 108 36.7029 109.402 35.8849C110.812 35.0587 112.482 34.6472 114.413 34.6504C116.343 34.6536 118.008 35.0707 119.407 35.9016C120.814 36.7242 121.898 37.8778 122.658 39.3623C123.418 40.8384 123.796 42.5625 123.793 44.5346C123.789 46.4901 123.405 48.2088 122.641 49.6907C121.876 51.1644 120.789 52.3143 119.379 53.1406C117.977 53.9585 116.311 54.3659 114.38 54.3627ZM114.412 50.2612C115.29 50.2627 116.024 50.0153 116.613 49.5191C117.202 49.0146 117.646 48.3277 117.946 47.4581C118.254 46.5886 118.409 45.5987 118.411 44.4884C118.413 43.378 118.261 42.3876 117.956 41.5171C117.659 40.6466 117.217 39.9581 116.63 39.4517C116.042 38.9452 115.309 38.6913 114.431 38.6898C113.544 38.6884 112.798 38.9398 112.193 39.4443C111.595 39.9487 111.142 40.6357 110.834 41.5052C110.535 42.3748 110.384 43.3647 110.382 44.475C110.38 45.5853 110.528 46.5757 110.824 47.4463C111.13 48.3168 111.58 49.0053 112.176 49.5117C112.78 50.0099 113.525 50.2597 114.412 50.2612ZM139.807 54.0322L134.04 54.0226L142.87 28.5827L149.805 28.5942L158.538 54.0633L152.771 54.0537L146.427 34.4054L146.228 34.405L139.807 54.0322ZM139.463 44.0262L153.086 44.0489L153.079 48.2499L139.456 48.2272L139.463 44.0262ZM161.49 61.2274L161.534 34.9774L166.754 34.9861L166.749 38.1927L166.985 38.1931C167.218 37.6798 167.554 37.1583 167.994 36.6288C168.442 36.0909 169.023 35.6444 169.736 35.2893C170.458 34.926 171.353 34.7452 172.422 34.7469C173.814 34.7492 175.098 35.116 176.273 35.8471C177.448 36.5699 178.387 37.6611 179.089 39.1206C179.791 40.5718 180.14 42.3912 180.136 44.5787C180.133 46.7082 179.786 48.5057 179.096 49.9711C178.414 51.4283 177.484 52.533 176.306 53.285C175.137 54.0288 173.827 54.3995 172.377 54.3971C171.349 54.3954 170.475 54.2241 169.755 53.8831C169.043 53.5422 168.46 53.1145 168.005 52.6C167.55 52.0773 167.203 51.5505 166.963 51.0198L166.802 51.0196L166.785 61.2362L161.49 61.2274ZM166.701 44.5315C166.699 45.6666 166.855 46.6571 167.168 47.5028C167.482 48.3485 167.936 49.008 168.532 49.4812C169.128 49.9463 169.852 50.1795 170.706 50.1809C171.568 50.1823 172.297 49.9474 172.895 49.4761C173.492 48.9965 173.945 48.3344 174.253 47.4897C174.569 46.6368 174.728 45.6551 174.73 44.5448C174.732 43.4428 174.58 42.4731 174.275 41.6357C173.97 40.7983 173.519 40.1429 172.923 39.6696C172.328 39.1964 171.595 38.959 170.725 38.9575C169.863 38.9561 169.133 39.1828 168.536 39.6375C167.947 40.0922 167.494 40.7378 167.178 41.5741C166.862 42.4105 166.703 43.3963 166.701 44.5315ZM183.638 61.2642L183.682 35.0143L188.902 35.0229L188.897 38.2296L189.133 38.23C189.366 37.7167 189.702 37.1952 190.142 36.6656C190.591 36.1278 191.172 35.6813 191.885 35.3262C192.606 34.9628 193.501 34.782 194.57 34.7838C195.962 34.7861 197.246 35.1528 198.421 35.884C199.597 36.6068 200.536 37.698 201.237 39.1575C201.939 40.6087 202.288 42.428 202.285 44.6155C202.281 46.745 201.934 48.5425 201.244 50.008C200.562 51.4652 199.632 52.5698 198.455 53.3219C197.285 54.0657 195.975 54.4364 194.525 54.434C193.498 54.4323 192.624 54.2609 191.904 53.92C191.192 53.5791 190.608 53.1514 190.153 52.6369C189.698 52.1141 189.351 51.5874 189.112 51.0567L188.95 51.0564L188.933 61.273L183.638 61.2642ZM188.849 44.5683C188.847 45.7035 189.003 46.6939 189.316 47.5396C189.63 48.3853 190.085 49.0448 190.68 49.5181C191.276 49.9831 192.001 50.2163 192.854 50.2178C193.716 50.2192 194.446 49.9843 195.043 49.5129C195.64 49.0334 196.093 48.3712 196.401 47.5266C196.717 46.6736 196.876 45.692 196.878 44.5817C196.88 43.4797 196.728 42.5099 196.423 41.6725C196.118 40.8352 195.668 40.1798 195.072 39.7065C194.476 39.2332 193.743 38.9959 192.873 38.9944C192.011 38.993 191.282 39.2196 190.684 39.6744C190.095 40.1291 189.643 40.7747 189.326 41.611C189.01 42.4474 188.851 43.4331 188.849 44.5683Z" fill="white"/>
<line x1="-9.77002" y1="61.9771" x2="220.23" y2="62.9921" stroke="#FF6413" stroke-width="2"/>
</g>
<defs>
<clipPath id="clip0_2_2">
<rect width="253.799" height="70" fill="white" transform="translate(1.04991 0.801117) rotate(0.0953701)"/>
</clipPath>
</defs>
</svg>
