<svg width="195" height="70" viewBox="0 0 195 70" fill="none" xmlns="http://www.w3.org/2000/svg">
<path fill-rule="evenodd" clip-rule="evenodd" d="M25.3 0L29.4 19.2C35.1 19.1 38.4 20.6 39.4 23.7L36.9 4C36 -0.0999999 30.3 0.2 25.3 0Z" fill="#E20917"/>
<path fill-rule="evenodd" clip-rule="evenodd" d="M0 23.9C9.9 4.3 32.9 16.1 37.1 5.2L39.4 23.8C40.3 32.1 19.8 25.8 11.6 44.1L0 23.9Z" fill="#A61A17"/>
<path fill-rule="evenodd" clip-rule="evenodd" d="M11.5 27.8L18.8 49.5C18.8 49.5 18.9 44.4 25.5 41.8C32.1 39.2 38.4 40.9 46.2 37.8C54 34.7 54.7 31.9 54.7 31.9V2.7C54.7 2.7 53.8 8.7 47.8 12.4C41.8 16.1 35.8 16.4 28.1 17.5C19.7 18.2 11 21.2 11.5 27.8Z" fill="#E20917"/>
<path fill-rule="evenodd" clip-rule="evenodd" d="M11.5 27.8C13.2 32.3 17.3 34.6 25.8 33.3V54.2C23.5 54.1 21.1 52.7 18.7 49.6L11.5 27.8Z" fill="#EE7D02"/>
<path d="M26.8878 38.9876V35.8182H41.8203V38.9876H36.2539V54H32.4542V38.9876H26.8878ZM48.3921 54.2663C47.0131 54.2663 45.8205 53.9734 44.8144 53.3874C43.8141 52.7956 43.0418 51.9729 42.4972 50.9194C41.9527 49.86 41.6805 48.6319 41.6805 47.2351C41.6805 45.8265 41.9527 44.5954 42.4972 43.5419C43.0418 42.4825 43.8141 41.6598 44.8144 41.0739C45.8205 40.482 47.0131 40.1861 48.3921 40.1861C49.7712 40.1861 50.9608 40.482 51.961 41.0739C52.9672 41.6598 53.7425 42.4825 54.287 43.5419C54.8315 44.5954 55.1038 45.8265 55.1038 47.2351C55.1038 48.6319 54.8315 49.86 54.287 50.9194C53.7425 51.9729 52.9672 52.7956 51.961 53.3874C50.9608 53.9734 49.7712 54.2663 48.3921 54.2663ZM48.4099 51.3366C49.0373 51.3366 49.5611 51.1591 49.9813 50.804C50.4015 50.4429 50.7181 49.9517 50.9312 49.3303C51.1502 48.7088 51.2597 48.0015 51.2597 47.2085C51.2597 46.4154 51.1502 45.7081 50.9312 45.0866C50.7181 44.4652 50.4015 43.974 49.9813 43.6129C49.5611 43.2519 49.0373 43.0714 48.4099 43.0714C47.7766 43.0714 47.2439 43.2519 46.8119 43.6129C46.3857 43.974 46.0632 44.4652 45.8442 45.0866C45.6311 45.7081 45.5246 46.4154 45.5246 47.2085C45.5246 48.0015 45.6311 48.7088 45.8442 49.3303C46.0632 49.9517 46.3857 50.4429 46.8119 50.804C47.2439 51.1591 47.7766 51.3366 48.4099 51.3366ZM64.0793 54H57.634V35.8182H64.1325C65.9614 35.8182 67.5357 36.1822 68.8556 36.9102C70.1754 37.6322 71.1904 38.6709 71.9007 40.0263C72.6168 41.3816 72.9749 43.0033 72.9749 44.8913C72.9749 46.7853 72.6168 48.4129 71.9007 49.7741C71.1904 51.1354 70.1695 52.18 68.8378 52.908C67.512 53.636 65.9259 54 64.0793 54ZM61.4781 50.7063H63.9195C65.0558 50.7063 66.0117 50.5051 66.787 50.1026C67.5683 49.6942 68.1542 49.0639 68.5448 48.2116C68.9414 47.3535 69.1396 46.2467 69.1396 44.8913C69.1396 43.5478 68.9414 42.4499 68.5448 41.5977C68.1542 40.7454 67.5712 40.118 66.7959 39.7156C66.0206 39.3131 65.0647 39.1119 63.9284 39.1119H61.4781V50.7063ZM81.9126 54.2663C80.5336 54.2663 79.341 53.9734 78.3349 53.3874C77.3346 52.7956 76.5623 51.9729 76.0178 50.9194C75.4732 49.86 75.201 48.6319 75.201 47.2351C75.201 45.8265 75.4732 44.5954 76.0178 43.5419C76.5623 42.4825 77.3346 41.6598 78.3349 41.0739C79.341 40.482 80.5336 40.1861 81.9126 40.1861C83.2917 40.1861 84.4813 40.482 85.4815 41.0739C86.4877 41.6598 87.263 42.4825 87.8075 43.5419C88.352 44.5954 88.6243 45.8265 88.6243 47.2351C88.6243 48.6319 88.352 49.86 87.8075 50.9194C87.263 51.9729 86.4877 52.7956 85.4815 53.3874C84.4813 53.9734 83.2917 54.2663 81.9126 54.2663ZM81.9304 51.3366C82.5578 51.3366 83.0816 51.1591 83.5018 50.804C83.922 50.4429 84.2386 49.9517 84.4517 49.3303C84.6707 48.7088 84.7802 48.0015 84.7802 47.2085C84.7802 46.4154 84.6707 45.7081 84.4517 45.0866C84.2386 44.4652 83.922 43.974 83.5018 43.6129C83.0816 43.2519 82.5578 43.0714 81.9304 43.0714C81.2971 43.0714 80.7644 43.2519 80.3324 43.6129C79.9063 43.974 79.5837 44.4652 79.3647 45.0866C79.1516 45.7081 79.0451 46.4154 79.0451 47.2085C79.0451 48.0015 79.1516 48.7088 79.3647 49.3303C79.5837 49.9517 79.9063 50.4429 80.3324 50.804C80.7644 51.1591 81.2971 51.3366 81.9304 51.3366ZM96.9406 54V35.8182H100.785V50.8306H108.579V54H96.9406ZM111.054 54V40.3636H114.836V54H111.054ZM112.954 38.6058C112.392 38.6058 111.909 38.4194 111.507 38.0465C111.11 37.6677 110.912 37.215 110.912 36.6882C110.912 36.1674 111.11 35.7205 111.507 35.3477C111.909 34.9689 112.392 34.7795 112.954 34.7795C113.516 34.7795 113.996 34.9689 114.392 35.3477C114.795 35.7205 114.996 36.1674 114.996 36.6882C114.996 37.215 114.795 37.6677 114.392 38.0465C113.996 38.4194 113.516 38.6058 112.954 38.6058ZM129.212 44.2521L125.749 44.4652C125.69 44.1693 125.563 43.9029 125.367 43.6662C125.172 43.4235 124.915 43.2312 124.595 43.0891C124.281 42.9412 123.906 42.8672 123.468 42.8672C122.882 42.8672 122.387 42.9915 121.985 43.2401C121.583 43.4827 121.381 43.8082 121.381 44.2166C121.381 44.5421 121.512 44.8174 121.772 45.0423C122.032 45.2672 122.479 45.4477 123.112 45.5838L125.581 46.081C126.906 46.3532 127.895 46.7912 128.546 47.3949C129.197 47.9986 129.522 48.7917 129.522 49.7741C129.522 50.6679 129.259 51.4521 128.732 52.1268C128.211 52.8015 127.495 53.3282 126.584 53.707C125.678 54.0799 124.634 54.2663 123.45 54.2663C121.645 54.2663 120.206 53.8905 119.135 53.1388C118.07 52.3813 117.445 51.3514 117.262 50.0494L120.982 49.854C121.094 50.4045 121.367 50.8247 121.799 51.1147C122.231 51.3988 122.784 51.5408 123.459 51.5408C124.122 51.5408 124.654 51.4136 125.057 51.1591C125.465 50.8987 125.672 50.5643 125.678 50.1559C125.672 49.8126 125.527 49.5315 125.243 49.3125C124.959 49.0876 124.521 48.916 123.929 48.7976L121.568 48.3271C120.236 48.0607 119.245 47.5991 118.594 46.9421C117.949 46.2852 117.626 45.4477 117.626 44.4297C117.626 43.5537 117.863 42.7991 118.336 42.1658C118.816 41.5326 119.487 41.0443 120.351 40.701C121.222 40.3577 122.239 40.1861 123.405 40.1861C125.128 40.1861 126.483 40.5501 127.472 41.2781C128.466 42.006 129.046 42.9974 129.212 44.2521ZM139.157 40.3636V43.2045H130.945V40.3636H139.157ZM132.809 37.0966H136.591V49.8097C136.591 50.1589 136.645 50.4311 136.751 50.6264C136.858 50.8158 137.006 50.949 137.195 51.0259C137.39 51.1029 137.615 51.1413 137.87 51.1413C138.047 51.1413 138.225 51.1265 138.402 51.0969C138.58 51.0614 138.716 51.0348 138.811 51.017L139.406 53.8313C139.216 53.8905 138.95 53.9586 138.607 54.0355C138.263 54.1184 137.846 54.1687 137.355 54.1864C136.443 54.2219 135.644 54.1006 134.958 53.8224C134.277 53.5443 133.747 53.1122 133.369 52.5263C132.99 51.9403 132.803 51.2005 132.809 50.3068V37.0966Z" fill="black"/>
</svg>
